<svg xmlns="http://www.w3.org/2000/svg" width="16.523" height="19.989" viewBox="0 0 16.523 19.989"><defs><style>.a{fill:#979797;stroke:#969797;stroke-width:0.9px;}</style></defs><g transform="translate(0.45 0.45)"><g transform="translate(0 0)"><g transform="translate(3.321)"><path class="a" d="M13.082,17.473a4.49,4.49,0,1,1,4.49-4.491A4.5,4.5,0,0,1,13.082,17.473Zm0-8.435a3.945,3.945,0,1,0,3.945,3.945A3.95,3.95,0,0,0,13.082,9.037Z" transform="translate(-8.592 -8.492)"/></g><g transform="translate(0 10.885)"><path class="a" d="M17.85,36.663H2.773a.272.272,0,0,1-.273-.273V32.656a4.2,4.2,0,0,1,4.2-4.2h7.23a4.2,4.2,0,0,1,4.2,4.2v3.735A.272.272,0,0,1,17.85,36.663Zm-14.8-.545H17.577V32.656a3.655,3.655,0,0,0-3.651-3.651H6.7a3.655,3.655,0,0,0-3.651,3.651Z" transform="translate(-2.5 -28.46)"/></g></g></g></svg>